Coordinates
version=1
nRows=6
nColumns=34
inDegrees=yes

Units are S.I. units (second, meters, Newtons, ...)
If the header above contains a line with 'inDegrees', this indicates whether rotational values are in degrees (yes) or radians (no).

endheader
time	pelvis_tilt	pelvis_list	pelvis_rotation	pelvis_tx	pelvis_ty	pelvis_tz	hip_flexion_r	hip_adduction_r	hip_rotation_r	knee_angle_r	ankle_angle_r	subtalar_angle_r	mtp_angle_r	hip_flexion_l	hip_adduction_l	hip_rotation_l	knee_angle_l	ankle_angle_l	subtalar_angle_l	mtp_angle_l	lumbar_extension	lumbar_bending	lumbar_rotation	arm_flex_r	arm_add_r	arm_rot_r	elbow_flex_r	pro_sup_r	arm_flex_l	arm_add_l	arm_rot_l	elbow_flex_l	pro_sup_l
      2.05000000	      1.82869889	     -1.55737180	      4.18305209	      0.69144247	      0.92106326	      0.26304221	    -13.69947304	      7.85058376	     -2.66175392	     -2.97805983	     10.42171663	     -0.72925416	      3.49241831	     23.46959475	      0.45808238	     -1.55546161	    -20.68434658	      2.56859788	     -9.03210869	     16.82622005	     -7.52643014	      3.57097122	      2.45783826	     -4.31158255	    -22.54058630	     -0.05081700	     51.26084729	     90.00000000	     -4.47872762	    -15.32741239	     19.52636997	     19.08012304	     90.00000000
      2.06000000	      1.99276828	     -1.55552386	      3.90476297	      0.70490015	      0.91895297	      0.26382288	    -14.94037652	      7.89318943	     -2.72196687	     -2.77433399	     10.85222515	     -0.19686718	      3.70216935	     23.34280533	      0.41861933	     -2.15065620	    -17.21317872	      2.81620486	     -8.22958296	     16.53352154	     -7.75627007	      3.46536683	      2.78601252	     -3.95837791	    -22.73956921	     -0.18745310	     52.14858007	     90.00000000	     -4.77918819	    -15.31145494	     19.36184013	     18.61787491	     90.00000000
      2.07000000	      2.07941427	     -1.82805420	      3.59791582	      0.71814329	      0.91718535	      0.26347077	    -15.93593854	      8.07500830	     -2.61611039	     -2.82297393	     11.13098476	      0.44781956	      3.91219620	     23.25954402	      0.21367478	     -2.48770342	    -13.87898455	      2.75540679	     -7.44383611	     16.21073306	     -7.86642942	      3.79476903	      3.16716476	     -3.59648259	    -23.12265178	     -0.23360022	     52.78324705	     90.00000000	     -4.93457985	    -14.95686209	     19.15903757	     17.84537866	     90.00000000
      2.08000000	      2.15202948	     -1.92395318	      3.28677200	      0.73169371	      0.91517590	      0.26348088	    -16.96624841	      8.09874898	     -2.40894928	     -2.85066163	     11.37732973	      0.78004336	      4.15986753	     23.14754608	      0.17405483	     -2.88217588	    -10.84259848	      2.44116068	     -6.61635870	     15.87553922	     -7.96184591	      3.85471461	      3.49050689	     -3.26545253	    -23.39742494	     -0.23919764	     53.34350888	     90.00000000	     -5.17101982	    -14.76669945	     19.03875437	     17.20816672	     90.00000000
      2.09000000	      2.13557495	     -2.12839164	      3.03195022	      0.74529639	      0.91295774	      0.26334336	    -17.83380702	      8.22597221	     -2.19880174	     -2.99897523	     11.61101450	      1.10319410	      4.44950358	     23.18290233	      0.07542652	     -3.26817224	     -8.26018807	      2.29831008	     -5.47448609	     15.63576001	     -7.96419059	      4.06804148	      3.73588647	     -2.98696106	    -23.67074196	     -0.19657055	     53.91357755	     90.00000000	     -5.37561715	    -14.50068012	     19.02758638	     16.52282940	     90.00000000
      2.10000000	      2.21049059	     -2.24067239	      2.72656724	      0.75913748	      0.91101441	      0.26329202	    -18.73924801	      8.22720538	     -1.91025496	     -3.29423720	     11.80268328	      1.36683017	      4.85166800	     23.08027873	      0.03244868	     -3.99762818	     -6.11351194	      2.19419427	     -3.75562408	     15.31946409	     -8.00156693	      4.12935987	      4.03462436	     -2.73123987	    -23.87649162	     -0.18654224	     54.17053672	     90.00000000	     -5.50997050	    -14.29938481	     19.09370229	     15.75215652	     90.00000000
